<?xml version="1.0" encoding="utf-8"?>
<!-- Generator: Adobe Illustrator 24.1.3, SVG Export Plug-In . SVG Version: 6.00 Build 0)  -->
<svg version="1.1" id="Capa_1" xmlns="http://www.w3.org/2000/svg" xmlns:xlink="http://www.w3.org/1999/xlink" x="0px" y="0px"
	 viewBox="0 0 512 512" style="enable-background:new 0 0 512 512;" xml:space="preserve">
<style type="text/css">
	.st0{fill:#B6C9CB;}
	.st1{fill:#46515D;}
</style>
<path class="st0" d="M78.8,420.5c0.4,5.2,0.9,10.3,1.5,15.5c1.4,11.2,3.3,22.9,10.4,31.8c23.1,29.1,58.5,29.7,92.5,29.1
	c43.1-0.7,87.4-5.8,130.3-3.6c29.5,1.5,62.9,7.7,89.9-8.8c23-14.1,26.5-40.9,26.4-65.5c-0.4-66.4,11-142.2-41.2-192.1
	c-29.1-27.8-60.3-54-92.7-77.9c-32.5-24.1-57.1-26.2-89.2,0.7c-28.7,24.1-58.5,47.2-84,74.9c-28.5,30.9-44.1,57.3-44.5,99.9
	C78,356.8,76.4,388.5,78.8,420.5z"/>
<g>
	<g>
		<path class="st1" d="M96.6,320.2c6.2,26.3,16,51.7,29.1,75.3c13.1,23.6,29.5,45.3,48.6,64.4l0.3,0.3V502c0,5.5,4.5,10,10,10h180
			c5.5,0,10-4.5,10-10v-43c26-40,40-86.9,40-135.1V246c0-22.1-17.9-40-40-40c-8.2,0-15.9,2.5-22.3,6.8
			c-5.5-15.6-20.3-26.8-37.7-26.8c-8.2,0-15.9,2.5-22.3,6.8c-5.5-15.6-20.3-26.8-37.7-26.8c-7.1,0-14,1.9-20,5.4V80
			c0-22.1-17.9-40-40-40c-22.1,0-40,17.9-40,40v144l-27.3,18.2C102,259.1,89.6,290.5,96.6,320.2z M138.5,258.8l16.2-10.8v68
			c0,5.5,4.5,10,10,10s10-4.5,10-10c0-7.3,0-230,0-236c0-11,9-20,20-20c11,0,20,9,20,20v196c0,5.5,4.5,10,10,10s10-4.5,10-10v-70
			c0-11,9-20,20-20c11,0,20,9,20,20v70c0,5.5,4.5,10,10,10s10-4.5,10-10v-50c0-11,9-20,20-20s20,9,20,20v50c0,5.5,4.5,10,10,10
			s10-4.5,10-10v-30c0-11,9-20,20-20s20,9,20,20v77.9c0,44.8-13.2,88.9-38.3,126.6c-1.1,1.6-1.7,3.6-1.7,5.5v36h-160v-36
			c0-2.7-1.1-5.2-2.9-7.1c-2.1-2.4-27.1-24.7-48.6-63.2c-12.2-22-21.4-45.6-27.2-70.1C111,294,120,271.2,138.5,258.8z"/>
		<path class="st1" d="M124.7,90c5.5,0,10-4.5,10-10c0-33.1,26.9-60,60-60c33.1,0,60,26.9,60,60c0,5.5,4.5,10,10,10s10-4.5,10-10
			c0-44.1-35.9-80-80-80s-80,35.9-80,80C114.7,85.5,119.2,90,124.7,90z"/>
	</g>
</g>
</svg>
