<?xml version="1.0" encoding="utf-8"?>
<!-- Generator: Adobe Illustrator 24.1.3, SVG Export Plug-In . SVG Version: 6.00 Build 0)  -->
<svg version="1.1" id="Capa_1" xmlns="http://www.w3.org/2000/svg" xmlns:xlink="http://www.w3.org/1999/xlink" x="0px" y="0px"
	 viewBox="0 0 511 511" style="enable-background:new 0 0 511 511;" xml:space="preserve">
<style type="text/css">
	.st0{fill:#DBB9B9;}
	.st1{fill:#46515D;}
</style>
<path class="st0" d="M130.4,95.7c-36.3,20.6-69,52.9-76.9,94c-3.4,17.8-2,36.2,1,54.1c18.3,111.3,97,228.6,217.2,234.6
	c66.6,3.3,124.8-56.7,156.7-111.1c27.5-46.9,39-103.5,28.8-156.9c-14.1-74.3-59.8-120-130-138.9C261.9,53.7,189.4,62.1,130.4,95.7z"
	/>
<path class="st1" d="M499.4,462.8l-30.6-39.4c-28.9-37.2-65.6-67.4-107.3-88.6c22.5-22.4,37.6-51.5,42.9-83l25.1-151
	c0.7-4.1-1.3-8.2-4.9-10.3l-154-88.9c-3.6-2.1-8.1-1.7-11.3,0.9L141.1,99.7c-31.8,26.2-51.9,64.7-55.1,105.7c0,0.3,0,0.7-0.1,1
	c-3.5-10.5-6.4-21.2-8.9-32.1c-3.4-15.6-17-26.5-33-26.5c-9.7,0-19,4.2-25.4,11.5s-9.4,17-8.2,26.7c9.8,78.2,41.9,151.3,92.8,211.6
	c6,7.1,12.3,13.8,18.9,20.2l-19.5,33.8L49,420.7c-4.8-2.8-10.9-1.1-13.6,3.7c-2.8,4.8-1.1,10.9,3.7,13.6l124.1,71.7
	c1.6,0.9,3.3,1.3,5,1.3c3.4,0,6.8-1.8,8.7-5c2.8-4.8,1.1-10.9-3.7-13.6l-53.4-30.8l17.4-30.2c21,17.5,44.6,32,69.9,42.6l85.9,36.2
	c1.3,0.5,2.6,0.8,3.9,0.8c3.9,0,7.6-2.3,9.2-6.1c2.1-5.1-0.2-10.9-5.3-13.1l-85.9-36.2c-37.1-15.7-70.5-40.2-96.5-71
	C70,327.4,39.5,257.8,30.1,183.5c-0.5-4,0.7-7.9,3.4-11c2.7-3,6.4-4.7,10.5-4.7c6.6,0,12.2,4.5,13.6,10.9
	c9.8,44.2,27.9,85.7,53.2,122.6c1.3,2,2.8,4,4.2,6c11.3,15.8,23.9,30.8,37.8,44.7l37.9,37.9c6,6,14.1,9.4,22.6,9.4
	s16.6-3.3,22.6-9.4c12.5-12.5,12.5-32.8,0-45.2l-64-64c-3.6-3.6-5.6-8.4-5.6-13.5s2-9.9,5.6-13.5c7.5-7.5,19.6-7.5,27,0l14.4,14.4
	c31.7,31.7,69.1,56,111,72c50.8,19.5,95.4,52.5,128.7,95.5l30.6,39.4c3.4,4.4,9.6,5.1,14,1.8C502,473.4,502.8,467.1,499.4,462.8z
	 M153.8,115.1l112.9-92.9L292,36.9L238.4,81c-4.3,3.5-4.9,9.8-1.4,14c2,2.4,4.8,3.6,7.7,3.6c2.2,0,4.5-0.7,6.3-2.3l59.4-48.8
	l98.2,56.7l-16.8,101c-7.6,5.4-58.5,37.7-139.9-6.2c-51.7-27.9-92.7-26.9-118-21.1c-9.9,2.2-18.2,5.4-24.8,8.5
	C115.9,158.7,131.5,133.4,153.8,115.1z M213.3,379.4c-3.2,0-6.2-1.3-8.5-3.5l-7.9-7.9c0.8,0.3,1.7,0.7,2.5,1
	c7.3,2.8,14.9,5.1,22.6,6.7c-0.1,0.1-0.1,0.1-0.2,0.2C219.6,378.1,216.5,379.4,213.3,379.4z M227.4,253.9L213,239.5
	c-15.2-15.2-40-15.2-55.3,0c-7.4,7.4-11.4,17.2-11.4,27.6s4.1,20.2,11.4,27.6l58.9,58.9c-3.4-1-6.8-2.1-10.1-3.4
	c-18.8-7.2-36.3-17.3-52-30c-8.9-7.2-16.7-15.5-23.4-24.5c-1.3-1.9-2.6-3.7-3.9-5.6c-15.2-23.1-23-50.7-21.7-79
	c11.6-8.1,60.4-35.8,136.9,5.4c35.8,19.3,66.6,25,90.6,25c10.6,0,19.9-1.1,27.7-2.7c10.9-2.2,19.9-5.4,26.9-8.6l-3,18.1
	c-5,29.9-20.1,57.2-42.7,77.3c-3.5-1.5-7-2.9-10.6-4.3C292.2,306.4,257.2,283.7,227.4,253.9z"/>
</svg>
