<?xml version="1.0" encoding="utf-8"?>
<!-- Generator: Adobe Illustrator 24.1.3, SVG Export Plug-In . SVG Version: 6.00 Build 0)  -->
<svg version="1.1" id="Capa_1" xmlns="http://www.w3.org/2000/svg" xmlns:xlink="http://www.w3.org/1999/xlink" x="0px" y="0px"
	 viewBox="0 0 502.2 480.5" style="enable-background:new 0 0 502.2 480.5;" xml:space="preserve">
<style type="text/css">
	.st0{fill:#F7E8CB;}
	.st1{fill:#46515D;}
</style>
<path class="st0" d="M45.1,439.1c24.4,20.1,56.7,14.6,85.9,10.2c75.2-11.1,151.3-8.2,227-4.6c17.1,0.8,34.7,1.6,50.7-5.5
	c46.5-20.8,50-86.3,51.7-138.2c2.2-64.4-5.6-192.4-68.8-214.8c-26.8-9.4-55.2-8.1-82.8-3.8c-78.5,12.2-158.4,25.8-235.1,49.4
	C42.9,141.4,12,153.2,3,195.8c-2.7,13-2.5,26.6-2,40.1c1.4,41.1,4.9,82,10.4,122.6C15.8,390.5,21.5,419.6,45.1,439.1z"/>
<g>
	<g>
		<g>
			<g>
				<path class="st1" d="M498.8,172.6L445.2,33C435,6.6,405.4-6.5,379,3.7c-0.4,0.1-0.8,0.3-1.1,0.5L109.6,115.3
					c-25.5,10.5-38.1,39.4-28.3,65.2l7.4,19.7H71.7c-27.6,0-50,22.4-50,50v180c0,27.6,22.4,50,50,50h340c27.6,0,50-22.4,50-50v-180
					c0-2.7-0.3-5.4-0.7-8.1l9.3-3.8C496,227.8,508.7,198.6,498.8,172.6z M71.7,216.2h340c18,0.1,32.8,14.1,33.8,32H37.9
					C39,230.3,53.8,216.3,71.7,216.2z M152.1,168l53.5-26.7l11,27.5l-53.5,26.7L152.1,168z M445.7,430.2c0,18.8-15.2,34-34,34h-340
					c-18.8,0-34-15.2-34-34v-102h408V430.2z M445.7,312.2h-408v-48h408V312.2z M464.3,223.6l-8.4,3.4c-8.6-16.4-25.7-26.7-44.2-26.7
					H189.5l40.8-20.4c3.7-1.9,5.4-6.3,3.9-10.1l-17-42.4c-1.6-4.1-6.3-6.1-10.4-4.5c-0.2,0.1-0.4,0.2-0.6,0.3L138.4,157
					c-3.7,1.9-5.4,6.3-3.8,10.1l13.2,33.1h-42L96.3,175c-6.7-17.7,1.9-37.6,19.5-44.8L383.9,19c17.9-7.4,38.5,1.1,45.9,19
					c0.1,0.3,0.2,0.6,0.3,0.8l53.7,139.6C490.7,196.3,482,216.3,464.3,223.6z"/>
				<path class="st1" d="M309.5,441.7c14.9,8.7,33.3,8.7,48.2,0c22.9,13.3,52.3,5.5,65.6-17.4c13.3-22.9,5.5-52.3-17.4-65.6
					c-7.4-4.3-15.7-6.5-24.2-6.5c-8.4,0-16.7,2.2-24,6.5c-22.9-13.3-52.3-5.5-65.6,17.4C278.8,399,286.6,428.4,309.5,441.7z
					 M371.1,370.2c3.4-1.3,7-1.9,10.6-2c17.7,0,32,14.3,32,32c0,17.7-14.3,32-32,32c-3.6,0-7.2-0.7-10.6-2
					C385.3,412.7,385.3,387.7,371.1,370.2z M357.7,379.3c10.7,11.9,10.7,30,0,41.9C347.1,409.2,347.1,391.2,357.7,379.3z
					 M333.7,368.2c3.6,0,7.2,0.7,10.6,2c-14.2,17.5-14.2,42.6,0,60.1c-3.4,1.3-7,1.9-10.6,2c-17.7,0-32-14.3-32-32
					C301.7,382.5,316,368.2,333.7,368.2z"/>
				
					<rect x="358.8" y="147.7" transform="matrix(0.9138 -0.4062 0.4062 0.9138 -28.6993 176.1363)" class="st1" width="83.5" height="16"/>
				
					<rect x="306" y="122.2" transform="matrix(0.908 -0.4191 0.4191 0.908 -20.8248 165.6627)" class="st1" width="121.4" height="16"/>
			</g>
		</g>
	</g>
</g>
</svg>
